<?xml version="1.0" encoding="UTF-8"?>
<svg width="2560.3" height="778.69" version="1.1" viewBox="300 520 2560.3 778.69" xmlns="http://www.w3.org/2000/svg">
    <path d="m1039.7 520h-118.24c-93.37 0-179.2 32.27-246.97 86.25-67.77-53.98-153.6-86.25-246.97-86.25h-118.25c-5.11 0-9.26 4.14-9.26 9.26v273.32c0 5.11 4.14 9.26 9.26 9.26h215.43v477.58c0 6.17 5.92 10.6 11.85 8.91 50.89-14.52 97.62-38.93 137.94-71.05 40.32 32.11 87.05 56.53 137.94 71.05 5.93 1.69 11.85-2.74 11.85-8.91v-477.58h215.43c5.11 0 9.26-4.14 9.26-9.26v-273.32c-0.01-5.11-4.15-9.26-9.27-9.26z" fill="#eb1010"/>
    <path d="m524.69 916.77v-104.93h-215.43c-5.11 0-9.26-4.14-9.26-9.26v-273.32c0-5.11 4.14-9.26 9.26-9.26h118.24c93.37 0 179.2 32.27 246.97 86.25-91.27 72.69-149.78 184.76-149.78 310.52zm0 0v372.65c0 6.17 5.92 10.6 11.85 8.91 50.89-14.52 97.62-38.93 137.94-71.05-91.28-72.69-149.79-184.76-149.79-310.51z" fill="#911010"/>
    <path d="m824.27 916.77c0-125.75-58.52-237.82-149.79-310.51-91.27 72.69-149.79 184.76-149.79 310.51s58.52 237.82 149.79 310.51c91.27-72.69 149.79-184.76 149.79-310.51z" fill="#c31010"/>
    <g fill="#23283c">
        <path d="m1223.1 697.82h-60.92v-0.29c-0.4-2.33-0.63-4.28-0.73-5.84-0.1-1.55-0.14-3.39-0.14-5.54 0-5.25 1.89-10.05 5.68-14.42 3.79-4.38 10.15-6.56 19.1-6.56h136.99c0.58 4.08 0.87 8.26 0.87 12.53 0 5.06-1.75 9.67-5.25 13.85s-9.72 6.27-18.66 6.27h-36.72v162.64h-40.23v-162.64z"/>
        <path d="m1562.4 828.11h56.84c4.66 0 8.55 0.58 11.66 1.75 3.11 1.16 5.54 2.72 7.29 4.67 1.74 1.94 2.96 4.17 3.64 6.7s1.01 5.05 1.01 7.58c0 1.95-0.04 4.28-0.14 6.99-0.1 2.73-0.25 4.28-0.44 4.67h-120.09v-195c2.72-0.39 5.4-0.73 8.02-1.02s4.61-0.44 5.97-0.44c2.92 0 5.88 0.29 8.89 0.88 3.01 0.58 5.83 1.7 8.45 3.35s4.76 3.94 6.42 6.85c1.65 2.91 2.47 6.8 2.47 11.66v141.36z"/>
        <path d="m1781.8 829.57c9.32 0 15.69 2.14 19.09 6.41 3.4 4.28 5.11 9.03 5.11 14.28 0 2.14-0.05 3.94-0.15 5.4-0.1 1.45-0.25 3.06-0.44 4.81h-126.21v-195.29h121.55c0.39 2.14 0.63 3.94 0.72 5.39 0.1 1.46 0.15 3.26 0.15 5.4 0 6.8-1.75 11.9-5.25 15.3s-10.01 5.1-19.53 5.1h-57.42v48.1h61.8v31.18h-61.8v53.92z"/>
        <path d="m2238.2 781.76c0 3.89-0.1 7.77-0.29 11.66-0.19 3.88-0.48 7.86-0.87 11.95-0.78 8.16-2.77 15.88-5.98 23.17-3.2 7.29-7.87 13.6-13.99 18.95s-13.75 9.57-22.88 12.68c-9.14 3.11-19.92 4.67-32.35 4.67-12.63 0-23.31-1.36-32.06-4.08-8.74-2.72-16.02-6.66-21.86-11.81-5.83-5.14-10.3-11.46-13.4-18.95-3.12-7.48-5.25-16.08-6.42-25.8-0.39-3.5-0.68-7.09-0.87-10.78s-0.29-7.58-0.29-11.66v-116.29c2.72-0.39 5.39-0.73 8.01-1.02s4.61-0.44 5.98-0.44c2.91 0 5.87 0.29 8.89 0.88 3.01 0.58 5.78 1.7 8.3 3.35 2.53 1.65 4.61 3.94 6.27 6.85 1.65 2.91 2.47 6.8 2.47 11.66v97.64c0 7 0.44 13.31 1.31 18.95 0.88 5.64 2.62 10.45 5.25 14.43 2.62 3.99 6.27 7.1 10.93 9.32 4.66 2.24 10.78 3.35 18.36 3.35 13.21 0 22.45-3.83 27.7-11.52 5.25-7.67 7.86-18.4 7.86-32.21v-121.24c2.72-0.39 5.4-0.73 8.02-1.02s4.61-0.44 5.98-0.44c2.91 0 5.87 0.29 8.88 0.88 3.01 0.58 5.78 1.7 8.31 3.35 2.52 1.65 4.61 3.94 6.27 6.85 1.65 2.91 2.47 6.8 2.47 11.66z"/>
        <path d="m2435.2 860.46h-33.81l-83.07-128.25v128.25h-38.18v-194.7c1.94-0.39 4.56-0.78 7.87-1.17 3.3-0.38 6.6-0.58 9.91-0.58 6.22 0 11.08 1.07 14.58 3.2 3.5 2.15 6.6 5.45 9.32 9.91l75.2 122.71v-134.36c2.72-0.39 5.25-0.73 7.58-1.02s4.18-0.44 5.54-0.44c2.91 0 5.83 0.29 8.74 0.88 2.92 0.58 5.59 1.7 8.02 3.35s4.42 3.94 5.98 6.85c1.55 2.91 2.33 6.8 2.33 11.66v173.71z"/>
        <path d="m2628 722.6c-3.21-11.66-8.65-21.86-16.32-30.61-7.68-8.74-17.93-15.69-30.75-20.84-12.83-5.14-28.96-7.72-48.39-7.72-6.41 0-14.03 0.19-22.88 0.58-8.84 0.4-19.48 1.36-31.92 2.91v193.54h62.09c15.93 0 29.78-2.67 41.54-8.01 11.75-5.34 21.42-12.58 29-21.72 7.58-9.13 13.21-19.82 16.9-32.06s5.54-25.25 5.54-39.06c0-13.01-1.61-25.36-4.81-37.01zm-38.62 65.87c-1.75 8.55-4.81 15.88-9.18 22s-10.3 10.89-17.78 14.28c-7.48 3.41-16.96 5.11-28.42 5.11h-16.03v-134.37c6.02-0.58 11.85-0.88 17.49-0.88 11.08 0 20.26 1.71 27.55 5.11s13.07 8.06 17.34 13.99 7.28 12.87 9.03 20.84 2.62 16.52 2.62 25.65c0 10.3-0.87 19.72-2.62 28.27z"/>
        <path d="m2838.6 722.6c-3.31-12.25-8.45-22.88-15.45-31.92-6.99-9.04-15.98-16.18-26.96-21.43s-24.15-7.87-39.5-7.87c-15.55 0-28.96 2.73-40.23 8.16-11.27 5.44-20.59 12.78-27.98 22.01s-12.83 19.97-16.32 32.21c-3.5 12.25-5.25 25.17-5.25 38.76 0 13.8 1.6 26.91 4.81 39.35 3.21 12.43 8.31 23.37 15.31 32.79 6.99 9.43 16.02 16.9 27.1 22.44s24.48 8.31 40.23 8.31c15.94 0 29.54-2.73 40.81-8.16 11.27-5.44 20.5-12.87 27.69-22.3 7.19-9.42 12.43-20.4 15.74-32.94 3.3-12.53 4.96-25.8 4.96-39.79-0.01-14.17-1.66-27.38-4.96-39.62zm-38.62 66.74c-1.65 8.56-4.27 16.13-7.87 22.73-3.59 6.61-8.41 11.86-14.42 15.74-6.03 3.89-13.41 5.83-22.15 5.83-8.75 0-16.14-1.94-22.16-5.83-6.02-3.88-10.88-9.13-14.57-15.74-3.69-6.6-6.36-14.18-8.01-22.73s-2.48-17.49-2.48-26.82c0-9.32 0.83-18.16 2.48-26.52s4.37-15.69 8.16-22.01c3.79-6.31 8.74-11.31 14.86-15.01 6.12-3.69 13.65-5.54 22.59-5.54 8.55 0 15.74 1.85 21.57 5.54 5.83 3.7 10.58 8.7 14.28 15.01 3.69 6.32 6.31 13.65 7.87 22.01 1.55 8.36 2.33 17.19 2.33 26.52 0 9.34-0.84 18.27-2.48 26.82z"/>
        <path d="m2034.2 666.04c-4.33-0.58-8.81-0.87-13.47-0.87-7.31 0-12.96 1.49-16.96 4.49-3.99 3-7.2 6.91-9.63 11.74l-50.52 103.67-50.52-103.67c-2.43-4.83-5.64-8.73-9.63-11.74-3.99-2.99-9.65-4.49-16.96-4.49-4.66 0-9.14 0.29-13.47 0.87-3.11 0.36-7.31 1.5-10.7 2.54v191.88h37.72v-0.04h0.06l0.01-127.65 43.89 87.1h39.2l43.89-87.1 0.01 127.65h0.06v0.04h37.72v-191.89c-3.39-1.03-7.59-2.17-10.7-2.53z"/>
        <path d="m1426 845.53c24.97 3.47 49.57 10.97 58.57 13.89 0.14-1.32 0.27-2.62 0.34-3.76 0.1-1.46 0.15-3.26 0.15-5.4 0-5.25-1.71-10-5.11-14.28-3.4-4.27-9.76-6.41-19.09-6.41h-62.38v-53.93h61.79v-31.18h-61.79v-48.1h57.42c9.52 0 16.03-1.7 19.53-5.1s5.25-8.5 5.25-15.3c0-2.14-0.05-3.94-0.15-5.4-0.1-1.45-0.34-3.25-0.72-5.39h-121.55v176.86c13.76 0.1 47.16 0.64 67.74 3.5z"/>
        <path d="m2745.2 1034.5c-27.64 28.62-102.62 101.44-138.05 120.85-63.88 39.19-110.62 19.58-127.13-51.1-13.67 12.86-27.68 26.41-42.15 39.46-6.27 5.66-13.14 10.85-20.34 15.27-23.86 14.63-43.39 14.51-59.81 0.28-16.08-13.94-18.68-31.3-8.62-57.41 0.89-2.31 1.73-4.63 3.63-9.75-11.71 10.77-21.07 19.77-30.86 28.29-15.74 13.7-30.87 28.36-47.91 40.26-19.48 13.6-37.02 12.71-50.67 1.02-14.32-12.27-19.4-31.31-9.06-51.92 11.04-22 44.54-70.27 48.52-75.46-8.35-4.75-15.99-9.09-20.41-11.6-27.71 23.32-39.62 29.16-65.36 41.91-7.94 3.93-5.93 2.81-13.07 6.37-18.63 31.41-50.52 73.74-82.79 91.87-19.45 10.93-41.26 17.71-61.04 4.02-21.55-14.92-33.2-38.8-27.83-65.15 6.45-45.15 43.42-92.7 94-114.34 27.21-10.88 65.53-9.33 75.28 15.77 3.37 8.68 0.95 16.35-2.05 21.74-1 1.8-3.83-0.13-4.57-1.71-7.2-15.16-17.26-15.27-36.39-7.03-48.81 21.03-77.6 51.91-91.82 102.23-7.58 25.05 17.53 44.36 38.16 31.85 32.09-18.23 54.93-49.95 72.09-82.13 1.44-2.69 0 0-2.35-2.66-17.38-19.63-3.92-35.3 14.26-27.34 12.68 5.55 14.8 15.12 13.47 21.4 17.97-8.26 33.28-17.43 57.45-38.04 2.47-2.1 0.34-11.29 0.49-15.39 0.19-5.09-6.83-32.95 18.3-38.18 35.09 1.67 11.95 36.04 9.93 40.6 15.73 6.63 30.49 13.23 45.54 19.09 18.16 7.06 20.61 12.41 9.23 28.42-12.48 17.56-48.61 70.08-54.65 78.52-9.84 13.74 12.75 21.67 33.14 0.87 47.51-48.46 94.53-97.4 141.62-146.28 1.15-1.19-0.08 2.75 1.15-1.19-25.69 3.84-48.73 4.36-74.4 7.01-22.24 3.26-27.72-4.05-30.96-25.39 27.79 2.81 78.37-7.16 117.47-11.81 6.83-0.81 14.38-5.78 19.25-11 16.94-18.15 32.5-37.58 49.24-55.92 22.39-24.53 31.28-23.72 54.25 4.66-12.95 14.82-26.1 29.86-43.08 49.28 21.22-2.9 37.39-5.45 53.66-7.25 33.1-3.67 66.09-9.4 99.38-10.2 38.19-0.91 49.1 11.97 51.26 24.45-1.37 14.87-15.36 24.96-33.08 30.04 3.05-5.71 24.76-25.69-29.48-25.16-53.37 4.2-106.64 9.76-159.87 15.49-5.13 0.55-11.05 4.66-14.42 8.86-29.82 37.17-59.44 74.51-88.37 112.37-6.2 8.11-10.91 18.14-13.42 28.03-1.86 7.32-1.87 19.29 2.49 22.85 4.61 3.77 17.03 2.76 23.08-0.96 14.31-8.8 28.12-19.23 39.84-31.23 20.05-20.55 37.37-43.79 57.66-64.08 20.19-20.2 41-40.53 64.46-56.52 30.35-20.69 60.82-11.55 81.37 19.18 8.5 12.71 6.14 24.48-0.06 36.84-22.38 44.63-67.78 60.24-118.71 39.49-3.31 7.62-7.51 15.02-9.79 22.98-7.08 24.69 5.57 44.49 30.91 41.21 22.33-2.89 47.89-9.82 64.31-23.94 47.96-41.21 92.82-86.15 137.37-131.14 21.99-22.2 29.51-22.88 48.64 5.9-25.58 21.57-24.06 54.06-31.74 83.11-5.46 20.66-10.02 41.55-16.54 68.91 30.38-26.06 57.05-49.17 84.05-71.89 5.25-4.42 11.79-7.3 19.74-12.11 0.86 7.12 1.62 8.85 1.08 9.52-31.44 39.03-67.37 73.18-113.21 94.43-27.57 12.78-57.65 5.46-73.19-15.13-4.25-5.63-5.71-13.9-6.6-21.18-0.23-1.86 8.62-7.35 9.93-6.42 5.78 4.11 10.42 9.86 15.26 15.21 1.2 1.33 1.62 3.38 4.52 9.79 32.37-35.86 35.03-79.76 46.82-119.91-1.79-1.25 3.37-0.59 1.55-1.78zm-201.99 39.49c37.89 11.68 79.32-17.43 81.47-55.81-22.15-1.05-57.48 22.82-81.47 55.81z"/>
        <path d="m1356.5 918.39c3.58-4.38 1.43-15.66 5.29-12.64 35.39 24.87 38.46 26.42 8.26 56.07-24.06 23.63-55.19 55.57-77.9 78.68 14.48 1.34 37.54 6.28 41.28 18.98 0.42 1.43-2.04 3.57-3.28 3.11-25.74-9.65-46.72-7.55-54.29-3.16-3.36 1.95-8.3 8.83-10.86 13.59-10.67 19.87-22.12 39.74-17.79 64.07 0.22 1.21-1.63 2.62-2.74 2.05-17.73-9.16-15.72-29.17-8.12-73.28-78.76 22.97-57.58 78.16-6.27 82.04 80.25 4.77 178.59-15.84 248.82-63.84 21.02-14.37 97.73-93.99 43.22-145.32-37.13-30.11-89.15-49.64-144.63-49.11-120.39 1.15-119.77 29.81-109.96 50.22 0.69 1.44-1.79 4.94-3.71 5.06-24.3 1.55-40.7-22.71-31.62-46.3 5.34-13.87 21.01-26.44 41.08-32.25 76.2-29.12 172.76-25.89 244.21 14.38 63.46 38.22 75.18 120.89 29.32 181.74-40.77 54.11-96.1 87.88-160.03 107.63-49.79 15.38-100.98 24.21-152.57 11.68-18.23-4.43-37.07-10.88-50.97-23.44-28.4-25.64-23.48-66.21 7.16-88.91 18.5-14.02 42.37-20.56 55.19-24.17 10.74-12.53 11.2-17.61 28.33-39.53 20.48-26.17 80.86-85.24 82.58-87.35z"/>
        <path d="m1607 1073.8c-35.08 56.49-12.84 113.96 74.39 51.54 53.2-49.07 104.2-100.53 155.71-151.41 3.23-3.19 7.4-7.67 6.47-12.63-0.98-5.22 5.75-2.22 6.22-1.93 37.69 23.03 37.78 28.11 8.2 59.82-5.6 6-10.44 12.23-15.06 18.42 5.02-3.42 9.83-7.18 15.08-10.2 24.84-14.25 49.43-29.01 74.83-42.19 19.71-10.23 37.39-6.02 52.99 10.62 15.19 16.2 15.96 33.48 7.42 52.35-20.61 45.53-52.12 81.71-97.01 103.82-15 7.39-34.01 10.64-50.77 9.5-23.55-1.6-36.61-20.41-34.05-39.21 0.29-2.12 3.15-2.65 4.09-1.1 6.56 10.88 16.02 12.76 24.47 13.4 11.68 0.89 26.04-4.78 35.78-12.17 34.29-26.01 60.33-59.47 79.06-98.26 6.92-16.17 3.95-34.97-23.71-19.07-92.8 46.43-165.55 109.92-215.43 202.31-12.08 21.73-14.79 56.26-12.32 74.66 0.56 4.19-4.94 5.46-8.29 1.95-11.69-12.26-19.71-33.58-16.19-56.18 5.16-58.13 39.93-97.93 47.59-112.04-24.87 15.93-49.5 35.02-76.91 48.44-35.48 17.38-75.69 6.76-89.25-28.95-6.23-16.42-4.67-41.49 0.65-57.98 15.94-49.41 49.9-85.36 97.27-106.9 31.75-14.43 63.94-1.54 77.89 30.52 3.44 7.92 2.99 19.61-0.07 27.95-18.51 50.4-79.68 79.36-129.05 44.92zm11.72-12.72c38.37 17.16 83.43-13.42 87.17-55.08 0.17-1.88-2.62-5-4.03-4.6-34.09 9.63-58.14 34.62-83.14 59.68z"/>
    </g>
</svg>
