<svg xmlns="http://www.w3.org/2000/svg" xml:space="preserve" width="755.007px" height="301.488px" x="0px" y="0px" viewBox="0 0 755.007 301.488"><linearGradient id="a" x1="266.3799" x2="45.8937" y1="266.3804" y2="45.8941" gradientUnits="userSpaceOnUse"><stop offset="0" style="stop-color:#4fedf9"/><stop offset="1" style="stop-color:#124596"/></linearGradient><path fill="url(#a)" d="M150.743 0C67.491 0 0 67.49 0 150.744s67.491 150.744 150.743 150.744c83.255 0 150.744-67.49 150.744-150.744S233.998 0 150.743 0zm2.236 284.34c-70.612 0-127.855-57.243-127.855-127.855S82.366 28.628 152.979 28.628c70.611 0 127.854 57.244 127.854 127.856S223.59 284.34 152.979 284.34z"/><linearGradient id="b" x1="114.5459" x2="248.3368" y1="72.8643" y2="206.6552" gradientUnits="userSpaceOnUse"><stop offset="0" style="stop-color:#52dbd3"/><stop offset="0.5211" style="stop-color:#38acf9"/><stop offset="1" style="stop-color:#124596"/></linearGradient><path fill="url(#b)" d="M177.996 16.699c-66.061 0-119.614 53.554-119.614 119.616s53.554 119.616 119.614 119.616c66.063 0 119.615-53.554 119.615-119.616S244.059 16.699 177.996 16.699zm5.94 219.346c-58.001 0-105.018-47.018-105.018-105.018S125.935 26.008 183.936 26.008c58 0 105.018 47.019 105.018 105.019-.001 58-47.018 105.018-105.018 105.018z"/><linearGradient id="c" x1="99.7847" x2="224.3253" y1="249.2739" y2="124.7333" gradientUnits="userSpaceOnUse"><stop offset="0" style="stop-color:#4fedf9"/><stop offset="1" style="stop-color:#124596"/></linearGradient><path fill="url(#c)" d="M164.797 70.227c-62.98 0-114.035 51.056-114.035 114.035 0 62.98 51.055 114.036 114.035 114.036 62.979 0 114.036-51.055 114.036-114.036 0-62.98-51.057-114.035-114.036-114.035zm-6.609 207.544c-54.722 0-99.082-44.361-99.082-99.083 0-54.72 44.36-99.082 99.082-99.082 54.723 0 99.083 44.362 99.083 99.082 0 54.723-44.361 99.083-99.083 99.083z"/><linearGradient id="d" x1="194.6182" x2="80.9441" y1="244.4551" y2="130.781" gradientUnits="userSpaceOnUse"><stop offset="0" style="stop-color:#4fedf9"/><stop offset="1" style="stop-color:#124596"/></linearGradient><path fill="url(#d)" d="M119.787 55.68c-62.931 0-113.944 51.015-113.944 113.944 0 62.93 51.014 113.945 113.944 113.945 62.932 0 113.945-51.016 113.945-113.945 0-62.929-51.013-113.944-113.945-113.944zm8.449 193.004c-48.463 0-87.749-39.288-87.749-87.75s39.286-87.75 87.749-87.75c48.465 0 87.752 39.288 87.752 87.75s-39.287 87.75-87.752 87.75z"/><path stroke="#231815" stroke-miterlimit="10" stroke-width="0.25" d="M392.521 178.817c0 12.198 6.388 17.99 18.852 17.99 5.527 0 11.482-1.853 11.482-1.853 1.913-.595 4.217.381 5.121 2.169l9.983 19.768c.904 1.788.407 4.328-1.103 5.644 0 0-9.035 7.869-34.087 7.869-27.955 0-48.47-14.814-48.47-40.835V77.809a3.654 3.654 0 0 1 3.645-3.642h30.936a3.653 3.653 0 0 1 3.641 3.642v101.008z"/><path d="M751.007 193.352h-52.241c0 .001 42.774-46.224 45.694-49.025 4.186-4.014 7.72-9.913 7.72-17.136 0-12.183-8.561-22.06-22.549-22.06h-84.026v16.476c-10.498-13.551-29.831-20.698-52.014-20.698-34.137 0-60.389 22.251-60.389 46.108v76.679a3.653 3.653 0 0 0 3.643 3.643h29.826a3.653 3.653 0 0 0 3.643-3.643V157.16c0-9.791 5.519-21.005 23.32-21.005 17.787 0 23.233 12.04 23.233 24.5v63.041a3.654 3.654 0 0 0 3.645 3.643l116.252-.023c2.002.013 4.355-1.455 5.224-3.259l12.685-26.311c.87-1.804.175-4.394-3.666-4.394zm-49.903-53.879c2.003 0 2.502 1.177 1.107 2.616l-48.234 49.794v-44.865c0-2.623-.219-5.135-.619-7.545h47.746z"/><path d="M531.268 105.132c-11.137 0-19.258 3.437-23.439 12.856-10.34 23.292-29.833 64.595-29.833 64.595-.855 1.813-2.146 1.765-2.868-.104 0 0-14.063-36.419-25.364-64.491-3.849-9.56-12.303-12.856-23.438-12.856h-33.804V77.809a3.653 3.653 0 0 0-3.641-3.642h-30.936a3.654 3.654 0 0 0-3.645 3.642v27.323h-18.092c-3.893 0-4.433 3.5-3.593 5.319l11.868 25.714c.838 1.819 3.165 3.308 5.168 3.308h4.648v50.097c0 26.021 20.515 40.835 48.47 40.835 25.052 0 34.087-7.869 34.087-7.869 1.51-1.316 2.007-3.856 1.103-5.644l-9.983-19.768c-.904-1.789-3.208-2.764-5.121-2.169 0 0-5.955 1.853-11.482 1.853-12.464 0-18.852-5.792-18.852-17.99v-39.345H413.5c2.002 0 4.328 1.489 5.168 3.307l38.685 81.253c.839 1.819 3.167 3.308 5.169 3.308h27.411c2.004 0 4.334-1.485 5.179-3.301l39.17-81.265c.844-1.816 3.177-3.302 5.18-3.302h4v-34.341h-12.194z"/></svg>